<svg width="1581" height="498" viewBox="0 0 1581 498" fill="none" xmlns="http://www.w3.org/2000/svg">
<g clip-path="url(#clip0_94_30)">
<path d="M1479.88 384.387C1461.85 384.387 1445.88 380.366 1431.99 372.322C1418.1 364.036 1407.25 352.702 1399.45 338.322C1391.65 323.942 1387.75 307.368 1387.75 288.601C1387.75 269.834 1391.53 253.26 1399.09 238.88C1406.89 224.5 1417.73 213.288 1431.63 205.245C1445.52 196.958 1461.36 192.815 1479.15 192.815C1496.7 192.815 1512.42 196.837 1526.32 204.88C1537.21 211.188 1546.08 219.52 1552.93 229.876C1556.06 234.611 1553.82 240.825 1548.65 243.164L1540.2 246.983C1535.3 249.196 1529.62 247.068 1526.44 242.741C1522.11 236.848 1516.7 232.027 1510.23 228.278C1500.97 222.672 1490.37 219.869 1478.42 219.869C1466.48 219.869 1455.88 222.794 1446.62 228.643C1437.6 234.493 1430.41 242.658 1425.05 253.138C1419.93 263.375 1417.37 275.196 1417.37 288.601C1417.37 302.006 1419.93 313.949 1425.05 324.429C1430.41 334.666 1437.72 342.709 1446.98 348.559C1456.49 354.408 1467.21 357.333 1479.15 357.333C1491.1 357.333 1501.7 354.286 1510.96 348.193C1517.74 343.85 1523.33 338.269 1527.76 331.45C1530.78 326.795 1536.65 324.462 1541.7 326.747L1549.98 330.49C1555.06 332.787 1557.33 338.836 1554.44 343.605C1547.54 354.997 1538.53 364.204 1527.41 371.226C1513.52 380 1497.68 384.387 1479.88 384.387Z" fill="#283547"/>
<path d="M1288.84 384.387C1271.05 384.387 1255.33 380.366 1241.68 372.322C1228.03 364.036 1217.31 352.702 1209.51 338.322C1201.95 323.942 1198.18 307.368 1198.18 288.601C1198.18 269.834 1201.95 253.26 1209.51 238.88C1217.31 224.5 1227.91 213.288 1241.32 205.245C1254.97 196.958 1270.56 192.815 1288.11 192.815C1305.17 192.815 1319.92 197.08 1332.35 205.611C1344.78 213.898 1354.41 225.597 1361.23 240.708C1366.92 253.305 1370.24 267.765 1371.19 284.089C1371.51 289.602 1366.99 294.085 1361.47 294.085H1238.42C1232.66 294.085 1228.02 298.961 1228.98 304.643C1231.51 319.647 1237.45 331.727 1246.8 340.881C1258.26 352.093 1272.76 357.699 1290.31 357.699C1303.22 357.699 1314.07 354.652 1322.84 348.559C1329.06 344.358 1334.29 339.231 1338.54 333.177C1341.75 328.606 1347.76 326.498 1352.74 329.024L1360.13 332.774C1365 335.244 1367.05 341.207 1364.09 345.799C1360.23 351.803 1355.62 357.232 1350.26 362.086C1342.71 369.154 1333.69 374.638 1323.21 378.538C1312.97 382.437 1301.52 384.387 1288.84 384.387ZM1231.95 258.808C1230.35 264.477 1235.07 269.59 1240.96 269.59H1329.31C1335.1 269.59 1339.78 264.638 1338.47 258.993C1337.05 252.898 1334.77 247.412 1331.62 242.536C1326.99 234.98 1320.9 229.131 1313.34 224.987C1305.78 220.844 1297.25 218.772 1287.75 218.772C1278.49 218.772 1269.59 220.844 1261.06 224.987C1252.53 228.887 1245.46 234.737 1239.85 242.536C1236.27 247.363 1233.64 252.787 1231.95 258.808Z" fill="#283547"/>
<path d="M1024.92 380C1019.39 380 1014.92 375.523 1014.92 370V207.202C1014.92 201.679 1019.39 197.202 1024.92 197.202H1036.19C1039.64 197.202 1042.48 199.897 1042.66 203.336V203.336C1043 209.731 1052.5 212.465 1057.35 208.294C1060.5 205.594 1063.9 203.237 1067.56 201.224C1077.31 195.618 1088.65 192.815 1101.56 192.815C1115.94 192.815 1128.37 195.74 1138.85 201.589C1149.58 207.195 1157.86 216.213 1163.71 228.643C1169.81 241.074 1172.73 257.404 1172.49 277.633V370C1172.49 375.523 1168.01 380 1162.49 380H1153.24C1147.72 380 1143.24 375.523 1143.24 370V286.408C1143.24 268.371 1141.17 254.601 1137.03 245.095C1132.88 235.59 1127.15 229.131 1119.84 225.719C1112.53 222.063 1104.24 220.235 1094.98 220.235C1078.9 220.235 1066.34 225.962 1057.33 237.418C1048.55 248.629 1044.16 264.594 1044.16 285.311V370C1044.16 375.523 1039.69 380 1034.16 380H1024.92Z" fill="#283547"/>
<path d="M831.055 380C825.532 380 821.055 375.523 821.055 370V207.202C821.055 201.679 825.532 197.202 831.055 197.202H842.331C845.776 197.202 848.618 199.897 848.802 203.336V203.336C849.143 209.731 858.634 212.465 863.493 208.294C866.638 205.594 870.04 203.237 873.7 201.224C883.45 195.618 894.783 192.815 907.701 192.815C922.081 192.815 934.511 195.74 944.992 201.589C955.716 207.195 964.003 216.213 969.852 228.643C975.945 241.074 978.87 257.404 978.626 277.633V370C978.626 375.523 974.149 380 968.626 380H959.379C953.856 380 949.379 375.523 949.379 370V286.408C949.379 268.371 947.307 254.601 943.164 245.095C939.02 235.59 933.293 229.131 925.981 225.719C918.669 222.063 910.382 220.235 901.12 220.235C885.034 220.235 872.482 225.962 863.464 237.418C854.689 248.629 850.302 264.594 850.302 285.311V370C850.302 375.523 845.825 380 840.302 380H831.055Z" fill="#283547"/>
<path d="M711.542 384.387C693.749 384.387 678.029 380.366 664.38 372.322C650.731 364.036 640.007 352.702 632.207 338.322C624.652 323.942 620.874 307.368 620.874 288.601C620.874 269.834 624.652 253.26 632.207 238.88C640.007 224.5 650.609 213.288 664.014 205.245C677.663 196.958 693.262 192.815 710.811 192.815C727.872 192.815 742.617 197.08 755.048 205.611C767.478 213.898 777.105 225.597 783.93 240.708C789.619 253.305 792.936 267.765 793.883 284.089C794.203 289.602 789.689 294.085 784.166 294.085H661.116C655.353 294.085 650.717 298.961 651.675 304.643C654.204 319.647 660.145 331.727 669.498 340.881C680.954 352.093 695.456 357.699 713.004 357.699C725.922 357.699 736.768 354.652 745.542 348.559C751.759 344.358 756.991 339.231 761.239 333.177C764.446 328.606 770.46 326.498 775.439 329.024L782.831 332.774C787.701 335.244 789.743 341.207 786.789 345.799C782.927 351.803 778.318 357.232 772.962 362.086C765.406 369.154 756.388 374.638 745.908 378.538C735.671 382.437 724.216 384.387 711.542 384.387ZM654.643 258.808C653.05 264.477 657.766 269.59 663.654 269.59H752.003C757.8 269.59 762.481 264.638 761.166 258.993C759.746 252.898 757.463 247.412 754.316 242.536C749.686 234.98 743.592 229.131 736.037 224.987C728.481 220.844 719.95 218.772 710.445 218.772C701.183 218.772 692.287 220.844 683.756 224.987C675.226 228.887 668.158 234.737 662.552 242.536C658.971 247.363 656.334 252.787 654.643 258.808Z" fill="#283547"/>
<path d="M535.871 380C530.348 380 525.871 375.523 525.871 370V232.428C525.871 226.905 521.394 222.428 515.871 222.428H502.236C496.713 222.428 492.236 217.951 492.236 212.428V207.202C492.236 201.679 496.713 197.202 502.236 197.202H515.871C521.394 197.202 525.871 192.725 525.871 187.202V176.363C525.871 157.352 530.258 143.094 539.033 133.589C548.051 123.839 561.699 118.965 579.979 118.965C584.854 118.965 590.338 119.818 596.431 121.524C599.688 122.436 603.05 123.557 606.516 124.887C611.708 126.879 613.857 132.932 611.466 137.953L608.842 143.463C606.587 148.199 601.066 150.354 596.12 148.605C594.115 147.895 592.268 147.277 590.582 146.75C586.682 145.531 583.391 144.922 580.71 144.922C572.18 144.922 565.721 147.725 561.334 153.331C557.19 158.693 555.119 167.101 555.119 178.557V187.202C555.119 192.725 559.596 197.202 565.119 197.202H598.13C603.653 197.202 608.13 201.679 608.13 207.202V212.428C608.13 217.951 603.653 222.428 598.13 222.428H565.119C559.596 222.428 555.119 226.905 555.119 232.428V370C555.119 375.523 550.642 380 545.119 380H535.871Z" fill="#283547"/>
<path fill-rule="evenodd" clip-rule="evenodd" d="M170.49 402.911C150.882 382.239 124.394 368.445 109.17 343.391C105.744 338.229 101.123 327.872 99.154 318.145C97.7506 311.213 94.8311 304.253 89.3209 299.819C62.2356 278.024 40.4513 252.663 24.4436 220.274C16.2087 203.437 10.0915 185.644 6.23203 167.302C1.21123 144.062 0.526656 121.322 2.39153 98.5952C2.48414 97.4665 2.69174 96.3565 2.91715 95.2467C5.26618 83.6811 3.26816 64.488 16.62 64.8375C24.14 65.3219 30.97 67.8663 37.8001 70.8795C46.5091 74.7503 49.7703 77.0908 54.7893 79.6284C54.9086 79.6887 55.0928 79.707 55.1326 79.8345V79.8345C55.1723 79.9617 55.3183 80.0362 55.4326 80.1045C100.413 106.981 136.56 142.694 172.737 179.183C177.963 184.454 185.655 186.29 192.902 184.688C213.759 180.076 234.648 180.111 255.73 184.395C262.91 185.854 270.449 183.871 275.554 178.616C310.936 142.191 347.556 107.003 392.412 80.0514C392.625 79.9237 392.8 79.7361 393.013 79.6101V79.6101C393.137 79.5369 393.272 79.4858 393.397 79.4129C399.172 76.028 407.315 71.2325 419.533 67.0793C430.356 62.8079 440.937 64.4665 441.697 76.9346C448.597 115.288 446.854 153.642 433.878 192.674C429.847 205.769 421.518 223.317 416.46 231.78C407.484 247.848 396.523 261.931 384.121 275.098C374.441 283.123 367.653 288.584 356.787 297.942C352.238 301.86 349.545 307.664 348.348 313.548C346.257 323.822 341.975 338.47 338.38 343.364C323.04 368.013 296.706 381.667 277.497 402.446C277.389 402.563 277.242 402.637 277.084 402.653L277.062 402.655C276.927 402.669 276.852 402.675 276.759 402.774V402.774C276.543 403.003 276.246 403.471 276.032 403.702C272.494 407.533 268.529 410.949 264.949 415.075C264.367 415.746 263.752 416.389 263.089 416.98C257.601 421.872 252.706 426.288 244.103 429.907C228.955 437.194 210.726 434.845 197.223 426.615C186.782 420.769 179.866 411.398 171.318 403.659L170.49 402.911ZM17.9937 103.033C19.1343 91.8074 30.6351 85.6163 40.7108 90.6957C42.0725 91.3822 43.2699 92.0228 44.2225 92.5786C83.7193 115.606 112.015 149.829 137.397 187.494C143.106 195.618 148.153 204.405 153.78 212.782C155.054 214.678 156.687 216.684 158.971 216.63C161.989 216.558 165.034 214.189 167.182 212.921C168.064 212.4 169.017 212.009 169.936 211.556C189.022 202.135 209.904 197.685 230.093 198.774C240.25 198.774 250.408 200.722 261.091 203.684C266.17 205.689 271.248 207.24 276.794 209.915C281.005 212.057 282.936 213.087 285.399 214.373C287.781 215.617 290.801 216.92 292.826 215.153C294.206 213.949 294.843 211.965 295.807 210.207C296.601 208.758 297.693 207.485 298.557 206.077C313.637 181.491 329.762 157.936 348.925 136.923C358.422 126.104 369.234 116.602 380.933 107.46C386.538 102.907 392.644 98.8565 399.584 94.6114C402.703 92.7082 405.891 90.9261 409.142 89.2685C418.08 84.711 427.041 89.6512 428.815 99.5264V99.5264C431.122 121.824 429.869 144.347 425.104 166.251C421.239 183.505 415.249 200.214 407.274 215.996C389.806 250.047 366.293 274.587 335.779 294.812C335.072 295.281 334.572 295.641 334.207 296.407V296.407C333.564 297.755 333.025 299.463 333.166 300.95C333.792 307.541 334.126 314.156 332.135 320.993C329.341 329.655 326.408 334.274 323.486 338.45C311.884 355.219 293.725 365.431 278.592 379.159C264.579 390.024 255.914 405.673 239.001 414.763C228.46 419.334 217.484 419.17 206.981 413.707C193.984 406.39 185.976 394.082 174.974 384.278C157.153 366.197 132.301 355.68 119.656 331.224C116.37 325.186 114.889 319.147 114.249 312.546C114.155 311.577 113.987 310.614 113.917 309.642C113.597 305.133 115.511 298.752 112.554 295.807C111.679 294.936 110.494 294.448 109.471 293.758C81.7525 275.049 59.5272 250.837 42.5623 220.797C38.9455 214.448 32.3786 200.179 28.5764 188.843C22.6646 171.502 18.9259 153.496 17.446 135.235C16.9752 124.517 16.9105 113.695 17.9937 103.033ZM149.183 287.666C156.188 287.436 163.194 287.416 170.872 290.37C181.615 294.948 184.701 298.584 189.719 305.545C194.158 312.326 198.16 325.172 195.814 334.579C195.607 335.408 195.038 335.947 194.184 335.961V335.961C193.741 335.968 193.103 335.841 192.769 335.55C188.907 332.187 188.254 326.03 180.515 325.983C179.57 325.978 178.618 326.011 177.674 325.953C172.313 325.625 166.469 325.162 161.213 322.346C155.234 319.217 150.629 314.716 146.886 309.032C142.995 303.67 137.185 287.795 149.183 287.666ZM288.73 287.372C290.67 287.098 292.642 287.164 294.592 287.359C297.86 287.686 301.627 288.001 303.413 289.637C308.473 294.181 303.059 305.522 300.49 309.445C295.071 316.358 291.588 320.503 279.796 324.263C278.826 324.572 277.877 324.972 276.897 325.25C272.583 326.476 267.251 324.972 263.52 326.444C262.621 326.799 261.88 327.449 261.238 328.171C259.753 329.846 258.484 331.76 257.01 333.595C255.468 335.514 252.092 336.209 251.724 333.774V333.774C249.685 322.011 256.253 305.853 261.193 300.914C264.473 297.552 267.143 294.653 272.65 291.918C277.99 289.303 283.331 288.133 288.73 287.372ZM225.769 369.775C237.854 371.386 245.984 372.662 246.512 384.065C246.586 385.652 246.328 387.243 245.783 388.735C243.457 395.096 240.045 397.325 235.726 400.431C234.45 401.348 233.857 401.729 232.502 402.523V402.523C228.636 404.791 223.174 405.653 219.18 403.619C213.768 400.863 210.253 397.39 206.858 392.25C205.837 390.704 205.073 388.983 204.769 387.155C202.741 374.963 211.802 371.51 224.015 369.775C225.189 369.775 224.749 369.775 225.769 369.775Z" fill="#283547"/>
</g>
<defs>
<clipPath id="clip0_94_30">
<rect width="1581" height="498" fill="white"/>
</clipPath>
</defs>
</svg>
